<svg width="65" height="38" viewBox="0 0 65 38" fill="none" xmlns="http://www.w3.org/2000/svg">
<path d="M2.1973 23.0055C-0.830125 20.9719 -0.729141 16.3982 2.50003 14.5339L26.5 0.677406C29.8334 -1.24709 34 1.15849 34 5.00748V32.7204C34 36.5693 29.8334 38.9749 26.5 37.0505L2.50003 23.194L2.1973 23.0055ZM4.00003 17.1315C2.6667 17.9013 2.6667 19.8266 4.00003 20.5964L28 34.4528C29.3333 35.2224 31 34.2599 31 32.7204V5.00748L30.9952 4.86491C30.8993 3.45638 29.3937 2.58732 28.126 3.20866L28 3.27506L4.00003 17.1315Z" fill="#103799"/>
<path d="M34 16.7278H63.5C64.3284 16.7278 65 17.3994 65 18.2278V18.2278C65 19.0562 64.3284 19.7278 63.5 19.7278H34V16.7278Z" fill="#103799"/>
</svg>
