<svg width="65" height="38" viewBox="0 0 65 38" fill="none" xmlns="http://www.w3.org/2000/svg">
<path d="M62.8027 14.7223C65.8301 16.7559 65.7291 21.3295 62.5 23.1939L38.5 37.0504C35.1666 38.9749 31 36.5693 31 32.7203V5.00741C31 1.15844 35.1666 -1.24716 38.5 0.677331L62.5 14.5338L62.8027 14.7223ZM61 20.5963C62.3333 19.8265 62.3333 17.9012 61 17.1314L37 3.27499C35.6667 2.50539 34 3.46791 34 5.00741V32.7203L34.0048 32.8629C34.1007 34.2714 35.6063 35.1405 36.874 34.5191L37 34.4527L61 20.5963Z" fill="#103799"/>
<path d="M31 21H1.5C0.671573 21 0 20.3284 0 19.5V19.5C0 18.6716 0.671573 18 1.5 18H31V21Z" fill="#103799"/>
</svg>
